<?xml version="1.0" encoding="UTF-8" standalone="no"?>
<!DOCTYPE svg PUBLIC "-//W3C//DTD SVG 1.1//EN" "http://www.w3.org/Graphics/SVG/1.1/DTD/svg11.dtd">
<svg width="100%" height="100%" viewBox="0 0 1254 1254" version="1.1" xmlns="http://www.w3.org/2000/svg" xmlns:xlink="http://www.w3.org/1999/xlink" xml:space="preserve" xmlns:serif="http://www.serif.com/" style="fill-rule:evenodd;clip-rule:evenodd;stroke-linejoin:round;stroke-miterlimit:2;">
    <g id="Background" transform="matrix(1.224609,0,0,1.224609,0,0)">
        <g transform="matrix(1.521303,0,0,1.521303,-267.10136,-236.561171)">
            <path d="M511.496,827.916C499.031,827.697 392.319,830.433 291.641,744.334C289.743,742.71 209.425,680.879 184.987,575.384C139.531,379.157 266.403,222.631 402.399,176.212C500.65,142.676 579.771,155.401 646.7,184.047C795.876,247.893 905.436,441.14 817.005,634.272C786.042,701.896 728.15,755.437 683.265,781.085C621.108,816.603 570.698,827.277 511.496,827.916Z" style="fill:rgb(30,26,77);"/>
        </g>
        <g transform="matrix(1.521303,0,0,1.521303,-267.10136,-236.561171)">
            <path d="M666.499,312.126C675.685,312.173 680.125,311.675 688.864,318.012C689.878,318.748 695.323,322.696 698.156,330.624C699.995,335.771 699.899,335.89 699.85,432.5C699.844,444.225 704.837,478.806 668.5,478.738C554.684,478.523 553.742,480.137 544.72,474.15C529.767,464.225 532.043,447.584 532.048,446.499C532.49,348.871 531.851,348.976 531.963,340.497C532.188,323.466 544.133,314.109 556.481,312.352C565.194,311.113 565.221,311.804 666.499,312.126Z" style="fill:rgb(97,95,255);"/>
        </g>
        <g transform="matrix(1.521303,0,0,1.521303,-267.10136,-236.561171)">
            <path d="M429.501,312.098C464.574,312.059 479.815,309.276 489.23,327.639C492.766,334.534 491.969,334.949 491.977,413.5C491.981,451.709 494.875,463.708 479.264,474.128C470.8,479.778 469.989,478.651 388.502,478.75C349.048,478.797 339.344,480.782 328.997,466.134C323.638,458.547 324.473,457.763 324.403,390.5C324.341,330.901 323.42,329.076 332.892,319.907C342.951,310.17 357.778,312.053 364.5,312.092C369.7,312.123 369.599,312.023 429.501,312.098Z" style="fill:rgb(175,179,208);"/>
        </g>
        <g transform="matrix(1.521303,0,0,1.521303,-267.10136,-236.561171)">
            <path d="M699.193,662.424C691.32,688.134 675.499,684.476 635.5,684.502C553.326,684.555 552.71,685.111 544.788,680.026C528.312,669.45 532.518,654.567 531.934,620.499C531.629,602.659 531.91,555.181 531.943,549.501C532.154,513.874 562.395,518.109 579.501,518.113C677.051,518.136 677.348,517.742 683.427,520.651C703.114,530.072 699.833,549.431 699.84,572.5C699.863,657.217 700.035,657.206 699.193,662.424Z" style="fill:rgb(175,180,208);"/>
        </g>
        <g transform="matrix(1.521303,0,0,1.521303,-267.10136,-236.561171)">
            <path d="M324.82,661.44C324.127,653.324 324.47,653.402 324.436,581.5C324.42,545.97 321.841,531.063 338.647,521.774C346.406,517.486 346.871,518.123 437.5,518.124C460.715,518.125 481.122,514.686 490.156,535.65C492.031,540.001 492.025,540.16 492.051,626.5C492.061,660.184 494.304,671.804 476.545,681.585C470.753,684.775 470.384,684.52 384.5,684.507C349.885,684.501 331.865,688.087 324.82,661.44Z" style="fill:rgb(175,180,208);"/>
        </g>
    </g>
</svg>
